<svg width="36" height="36" viewBox="0 0 36 36" fill="none" xmlns="http://www.w3.org/2000/svg">
<circle cx="18" cy="18" r="16" fill="white"/>
<path d="M18.0526 1C14.6799 1 11.383 2.00012 8.5787 3.87389C5.77441 5.74765 3.58874 8.41091 2.29806 11.5269C1.00739 14.6428 0.66969 18.0715 1.32767 21.3794C1.98565 24.6873 3.60975 27.7258 5.99461 30.1107C8.37946 32.4955 11.4179 34.1196 14.7258 34.7776C18.0337 35.4356 21.4624 35.0979 24.5784 33.8072C27.6944 32.5165 30.3576 30.3309 32.2314 27.5266C34.1052 24.7223 35.1053 21.4253 35.1053 18.0526C35.1003 13.5315 33.302 9.19704 30.1051 6.00014C26.9082 2.80324 22.5737 1.00502 18.0526 1ZM29.1369 27.5907C27.5206 23.3446 21.4575 21.4575 21.4575 21.4575C20.3936 21.9788 19.2356 22.2804 18.0526 22.3442C16.8677 22.2811 15.7077 21.9795 14.6421 21.4575C14.6421 21.4575 8.57895 23.3456 6.96274 27.5898C5.1311 25.4669 3.94761 22.8627 3.55299 20.0867C3.15837 17.3108 3.56921 14.4799 4.73668 11.9306C5.90414 9.3814 7.77911 7.22104 10.1387 5.70641C12.4982 4.19178 15.2431 3.3866 18.047 3.3866C20.8508 3.3866 23.5957 4.19178 25.9552 5.70641C28.3148 7.22104 30.1898 9.3814 31.3572 11.9306C32.5247 14.4799 32.9355 17.3108 32.5409 20.0867C32.1463 22.8627 30.9628 25.4669 29.1312 27.5898L29.1369 27.5907Z" fill="#003C69"/>
<path d="M18.0526 21.0918C21.6021 21.0918 24.4796 17.8016 24.4796 13.7431C24.4796 9.68446 21.6021 6.39432 18.0526 6.39432C14.5031 6.39432 11.6257 9.68446 11.6257 13.7431C11.6257 17.8016 14.5031 21.0918 18.0526 21.0918Z" fill="#003C69"/>
</svg>
